<?xml version="1.0" standalone="no"?>
<!DOCTYPE svg PUBLIC "-//W3C//DTD SVG 20010904//EN"
 "http://www.w3.org/TR/2001/REC-SVG-20010904/DTD/svg10.dtd">
<svg version="1.0" xmlns="http://www.w3.org/2000/svg"
 width="200.000000pt" height="200.000000pt" viewBox="0 0 200.000000 200.000000"
 preserveAspectRatio="xMidYMid meet">
<metadata>
Created by potrace 1.16, written by Peter Selinger 2001-2019
</metadata>
<g transform="translate(0.000000,200.000000) scale(0.100000,-0.100000)"
fill="#000000" stroke="none">
<path d="M310 1177 c-106 -56 -121 -214 -28 -292 65 -55 156 -53 222 5 45 40
59 78 54 148 -9 131 -133 200 -248 139z m145 -71 c48 -49 45 -127 -7 -171 -56
-47 -128 -20 -148 56 -28 102 85 185 155 115z"/>
<path d="M1085 1186 c-58 -26 -105 -101 -105 -168 0 -49 37 -116 81 -145 77
-51 191 -27 237 50 91 150 -57 332 -213 263z m131 -79 c21 -18 28 -35 32 -75
4 -49 2 -54 -31 -87 -37 -37 -60 -42 -102 -23 -34 15 -55 57 -55 108 0 85 93
131 156 77z"/>
<path d="M588 1020 l57 -171 29 3 c29 3 31 7 62 111 18 60 34 111 36 113 3 2
19 -48 38 -111 32 -111 34 -115 61 -115 27 0 29 5 80 158 28 86 54 163 57 170
3 8 -8 12 -35 12 l-39 0 -29 -90 c-16 -49 -32 -90 -35 -90 -4 0 -18 39 -31 88
l-24 87 -41 3 c-45 3 -37 18 -80 -133 l-17 -60 -32 95 -32 95 -41 3 -41 3 57
-171z"/>
<path d="M1300 1182 c0 -4 24 -79 53 -167 52 -156 54 -160 83 -163 l30 -3 33
116 c18 64 35 114 37 112 2 -2 19 -53 37 -113 32 -106 34 -109 61 -109 29 0
30 3 83 160 29 88 53 163 53 167 0 5 -17 8 -39 8 l-38 0 -29 -95 c-15 -52 -31
-90 -35 -84 -3 6 -17 49 -30 95 l-23 84 -41 0 -41 0 -24 -90 c-13 -49 -27 -90
-30 -90 -4 0 -19 41 -35 90 l-29 90 -38 0 c-21 0 -38 -3 -38 -8z"/>
</g>
</svg>
